# xmcd CD database file
#
# Track frame offsets:
#	150
#	14455
#	28544
#	43306
#	56209
#	71476
#	86242
#	100952
#	114942
#	125877
#	140493
#	150612
#	165673
#	175841
#	189170
#	203062
#	215040
#	228883
#	242848
#	267393
#
# Disc length: 3912 seconds
#
# Revision: 0
# Processed by: cddbd v1.5.2PL0 Copyright (c) Steve Scherf et al.
# Submitted via: CDex 1.70beta2
#
DISCID=230f4614
DTITLE=Lionel Hampton - Essential Recordings - CD 1
DYEAR=2018
DGENRE=Jazz
TTITLE0=Flying Home
TTITLE1=Buzzin' Around With The Bee
TTITLE2=On The Sunny Side Of The Street
TTITLE3=Everybody Loves My Baby
TTITLE4=Ring Dem Bells
TTITLE5=Down Home Jump
TTITLE6=It Don't Mean AThing (If It Ain't Got That Swing)
TTITLE7=Shufflin' At The Hollywood
TTITLE8=Wizzin' The Wizz
TTITLE9=Memories Of You
TTITLE10=When Lights Are Low
TTITLE11=One Sweet Letter From You
TTITLE12=Hot Mallets
TTITLE13=Haven't Named It Yet
TTITLE14=Central Avenue Breakdown
TTITLE15=Fiddle Dee Dee
TTITLE16=Loose Wig
TTITLE17=Million Dollar Smile
TTITLE18=Vibe Boogie
TTITLE19=Screamin' Boogie
EXTD=YEAR: 2018
EXTT0=
EXTT1=
EXTT2=
EXTT3=
EXTT4=
EXTT5=
EXTT6=
EXTT7=
EXTT8=
EXTT9=
EXTT10=
EXTT11=
EXTT12=
EXTT13=
EXTT14=
EXTT15=
EXTT16=
EXTT17=
EXTT18=
EXTT19=
PLAYORDER=
